<?xml version="1.0" encoding="iso-8859-1"?>
<!-- Generator: Adobe Illustrator 19.0.0, SVG Export Plug-In . SVG Version: 6.00 Build 0)  -->
<svg version="1.1" id="Capa_1" xmlns="http://www.w3.org/2000/svg" xmlns:xlink="http://www.w3.org/1999/xlink" x="0px" y="0px"
	 viewBox="0 0 496 496" style="enable-background:new 0 0 496 496;" xml:space="preserve">
<g>
	<g>
		<path d="M248,144c-57.344,0-104,46.656-104,104s46.656,104,104,104s104-46.656,104-104S305.344,144,248,144z M248,336
			c-48.52,0-88-39.48-88-88c0-48.52,39.48-88,88-88s88,39.48,88,88S296.52,336,248,336z"/>
	</g>
</g>
<g>
	<g>
		<path d="M277.144,248C283.8,242.136,288,233.544,288,224c0-11.792-6.48-22-16-27.552V176h-16v16h-16v-16h-16v16h-16v112h16v16h16
			v-16h16v16h16v-20.448c9.52-5.552,16-15.76,16-27.552C288,262.456,283.8,253.864,277.144,248z M256,288h-32v-32h32
			c8.824,0,16,7.176,16,16C272,280.824,264.824,288,256,288z M256,240h-32v-32h32c8.824,0,16,7.176,16,16
			C272,232.824,264.824,240,256,240z"/>
	</g>
</g>
<g>
	<g>
		<path d="M464,216c-14.872,0-27.288,10.24-30.864,24H383.6c-1.768-30.744-13.576-59.368-34.016-82.272l48.392-48.392l-10.696,46.36
			l15.592,3.592l19.84-86.008l-86.008,19.84l3.592,15.592l46.36-10.696l-48.432,48.432c-23.056-20.52-51.664-32.432-82.232-34.192
			V62.864c13.768-3.576,24-16,24-30.864c0-17.648-14.352-32-32-32s-32,14.352-32,32c0,14.864,10.232,27.288,24,30.864v49.424
			c-31.488,1.824-60.064,14.456-82.216,34.176L109.32,98.008l46.36,10.696l3.592-15.592L73.28,73.28l19.84,86.008l15.592-3.592
			l-10.696-46.36l48.488,48.488c-19.736,22.2-32.28,50.792-34.12,82.176h-49.52C59.288,226.24,46.872,216,32,216
			c-17.648,0-32,14.352-32,32s14.352,32,32,32c14.872,0,27.288-10.24,30.864-24h49.376c1.488,26.048,10.296,50.752,25.784,71.992
			c10.384,14.256,18.056,29.496,23.112,45.312c-5.52,4.4-9.136,11.104-9.136,18.696c0,6.168,2.408,11.744,6.24,16
			c-3.84,4.256-6.24,9.832-6.24,16c0,12.768,10.048,23.136,22.632,23.864c12.6,29,41.392,48.136,73.368,48.136
			c31.968,0,60.768-19.136,73.376-48.136C333.96,447.136,344,436.76,344,424c0-6.168-2.408-11.744-6.24-16
			c3.84-4.256,6.24-9.832,6.24-16c0-7.712-3.72-14.504-9.384-18.896c4.88-15.64,12.224-30.28,22.144-43.472
			c16.208-21.552,25.376-46.872,26.92-73.632h49.456c3.576,13.76,15.992,24,30.864,24c17.648,0,32-14.352,32-32S481.648,216,464,216
			z M32,264c-8.824,0-16-7.176-16-16c0-8.824,7.176-16,16-16s16,7.176,16,16C48,256.824,40.824,264,32,264z M232,32
			c0-8.824,7.176-16,16-16c8.824,0,16,7.176,16,16s-7.176,16-16,16C239.176,48,232,40.824,232,32z M248,480
			c-23.08,0-44.016-12.52-55.312-32h110.624C292.016,467.48,271.08,480,248,480z M320,416c4.416,0,8,3.592,8,8c0,4.408-3.584,8-8,8
			H176c-4.416,0-8-3.592-8-8c0-4.408,3.584-8,8-8h112v-16H176c-4.416,0-8-3.592-8-8c0-4.408,3.584-8,8-8h144c4.416,0,8,3.592,8,8
			c0,4.408-3.584,8-8,8h-16v16H320z M343.984,320.008c-10.96,14.568-19.08,30.728-24.512,47.992H176.224
			c-5.592-17.296-13.968-33.92-25.272-49.432c-15.552-21.336-23.48-46.616-22.92-73.128
			c1.272-61.792,52.496-114.416,114.168-117.312c33.264-1.576,64.672,10.176,88.624,33.032C354.8,184.04,368,214.88,368,248
			C368,274.208,359.696,299.112,343.984,320.008z M464,264c-8.824,0-16-7.176-16-16c0-8.824,7.176-16,16-16c8.824,0,16,7.176,16,16
			C480,256.824,472.824,264,464,264z"/>
	</g>
</g>
<g>
	<g>
		<rect x="304" y="240" width="16" height="16"/>
	</g>
</g>
<g>
	<g>
		<rect x="176" y="240" width="16" height="16"/>
	</g>
</g>
<g>
</g>
<g>
</g>
<g>
</g>
<g>
</g>
<g>
</g>
<g>
</g>
<g>
</g>
<g>
</g>
<g>
</g>
<g>
</g>
<g>
</g>
<g>
</g>
<g>
</g>
<g>
</g>
<g>
</g>
</svg>
