<svg xmlns="http://www.w3.org/2000/svg" viewBox="0 0 103.74 103.74"><defs><style>.cls-1{fill:none;stroke:#44b7a4;stroke-miterlimit:10;stroke-width:4px;}.cls-2{fill:#3fffca;}</style></defs><title>Asset 5</title><g id="Layer_2" data-name="Layer 2"><g id="Layer_1-2" data-name="Layer 1"><circle class="cls-1" cx="51.87" cy="51.87" r="49.87"/><path class="cls-2" d="M36.41,30.76h7.4a1.28,1.28,0,0,0,0-2.55h-7.4a1.28,1.28,0,0,0,0,2.55"/><path class="cls-2" d="M33.22,49.06h5.85a1.28,1.28,0,1,0,0-2.55H33.22a1.28,1.28,0,1,0,0,2.55"/><path class="cls-2" d="M31.84,67.66H26a1.28,1.28,0,0,0,0,2.56h5.85a1.28,1.28,0,0,0,0-2.56"/><path class="cls-2" d="M71.28,52.49a47.64,47.64,0,0,0-6-2.24,46.9,46.9,0,0,1-4.69-1.69,8.5,8.5,0,0,1-2.86-2,4.36,4.36,0,0,1-1.14-3.09,4.71,4.71,0,0,1,2.27-4.17A11.06,11.06,0,0,1,65,37.83a19.89,19.89,0,0,1,5.6.87,19.56,19.56,0,0,1,5.6,2.68l2.86-5a22.41,22.41,0,0,0-9.8-3.79l1.39-7H66.37L65.1,32.4a20.83,20.83,0,0,0-6.25,1.07H40.11a1.28,1.28,0,1,0,0,2.55H59a1.28,1.28,0,0,1,0,2.56h-7.1a10.82,10.82,0,0,0-1.7,6,10.7,10.7,0,0,0,.17,1.92H44a1.28,1.28,0,1,0,0,2.55h9.54a1.27,1.27,0,0,1,.14,2.54l0,0H40.11a1.28,1.28,0,1,0,0,2.55H61.94a1.27,1.27,0,0,1,.5.1,1.29,1.29,0,0,1,.56.46,1.28,1.28,0,0,1-1.06,2h-12a1.28,1.28,0,0,0,0,2.55H69.81A4.72,4.72,0,0,1,70.58,62,5.39,5.39,0,0,1,68,66.66a12,12,0,0,1-6.85,1.72,17.25,17.25,0,0,1-7-1.55,18.93,18.93,0,0,1-6.15-4.29H30.19a1.28,1.28,0,1,0,0,2.55H47.72a1.28,1.28,0,0,1,0,2.55H36.88a1.28,1.28,0,0,0,0,2.55H48.57q.86.56,1.8,1.06a21.74,21.74,0,0,0,6.56,2.19l-.09.48H40.11a1.28,1.28,0,1,0,0,2.55H60.56l.52-2.74a20.79,20.79,0,0,0,7.76-1.49,13.87,13.87,0,0,0,5.54-4,10.62,10.62,0,0,0,2.39-5.95,12.2,12.2,0,0,0,.06-1.4,8.24,8.24,0,0,0-1.63-5.31,11,11,0,0,0-3.91-3.12"/><polygon class="cls-2" points="55.36 81.5 59.62 81.5 60.08 79.04 55.84 79.04 55.36 81.5"/></g></g></svg>
