<?xml version="1.0"?>
<svg xmlns="http://www.w3.org/2000/svg" viewBox="0 0 24 24" enable-background="new 0 0 24 24">
    <path d="M 11 0 C 10.399 0.005 9.81375 0.25975 9.46875 1.21875 C 9.20475 1.95475 8.427 2 7.5 2 C 7.339 2 7.167 2 7 2 C 6.035 2 5.788 2.73525 6.25 3.40625 C 6.497 3.76325 8.01825 6.372 8.40625 7 C 8.486 7.129 8.6399062 7.2455938 8.84375 7.34375 C 8.8529946 7.3481463 8.8655602 7.3394172 8.875 7.34375 C 9.2821737 7.5338722 9.8558161 7.6527429 10.4375 7.71875 C 10.815281 7.762898 11.1817 7.79175 11.5 7.78125 C 11.76525 7.77275 12.066281 7.7460312 12.375 7.6875 C 13.146797 7.5411719 13.918926 7.2382227 14.125 6.78125 C 14.166215 6.6898555 14.197625 6.5725 14.1875 6.46875 C 14.0375 4.92975 15.6085 2.911 15.8125 2.625 C 16.1575 2.138 16.1105 1.0625 15.0625 1.0625 C 14.8585 1.0625 14.5965 1.12475 14.3125 1.21875 C 14.0375 1.30975 13.5985 1.8125 13.1875 1.8125 C 12.9895 1.8125 12.80725 1.68875 12.65625 1.34375 C 12.19325 0.28575 11.535 1.4802974e-16 11 0 z M 10.875 1 C 10.924516 0.991 10.94925 1.0005 11 1 C 11.323 1 11.56975 1.409 11.71875 1.75 C 12.13875 2.71 12.8905 2.8125 13.1875 2.8125 C 13.7685 2.8125 14.22325 2.475 14.53125 2.25 C 14.58525 2.211 14.6415 2.154 14.6875 2.125 C 14.8175 2.085 14.90275 2.0695 14.96875 2.0625 L 14.9375 2.125 C 14.377122 2.8899528 13.981993 3.6158981 13.6875 4.28125 C 13.394841 4.5983655 13.018988 4.8254009 12.53125 4.8125 C 11.64425 4.7885 11.537 3.65125 11 3.65625 C 10.399 3.66125 10.32925 4.55625 9.78125 4.65625 C 8.6869915 4.8563712 7.7954252 3.7084872 7.21875 3 L 7.25 3 L 7.5 3 C 8.341 3 9.88525 3.0145 10.40625 1.5625 C 10.55325 1.153 10.726453 1.027 10.875 1 z M 13.96875 8.21875 C 13.16475 8.61775 12.14225 8.76125 11.53125 8.78125 L 11.3125 8.78125 C 11.1235 8.78125 9.995 8.77475 9 8.46875 C 3.821 10.02175 0 15.271 0 19 C 0 23.418 5.373 24 12 24 C 18.627 24 24 23.418 24 19 C 24 15.027 19.66275 9.33175 13.96875 8.21875 z M 11.84375 12.03125 L 12.53125 12.03125 L 12.53125 13.0625 C 13.03125 13.1445 13.43375 13.35575 13.71875 13.71875 C 14.00375 14.08175 14.125 14.56625 14.125 15.15625 L 12.78125 15.15625 C 12.78125 14.80625 12.746 14.53075 12.625 14.34375 C 12.504 14.15675 12.339 14.0625 12.125 14.0625 C 11.902 14.0625 11.722 14.1535 11.625 14.3125 C 11.528 14.4715 11.5 14.6725 11.5 14.9375 C 11.501 15.1825 11.54825 15.38325 11.65625 15.53125 C 11.76425 15.67925 11.97225 15.827 12.28125 16 C 12.89925 16.227 13.34725 16.51575 13.65625 16.84375 C 13.96525 17.17175 14.125 17.6105 14.125 18.1875 C 14.125 18.7295 13.9885 19.173 13.6875 19.5 C 13.3865 19.827 12.9605 20.0025 12.4375 20.0625 L 12.4375 21 L 11.75 21 L 11.75 20.09375 C 11.215 20.03375 10.7785 19.81575 10.4375 19.46875 C 10.0965 19.12175 9.9245 18.6085 9.9375 17.9375 L 9.9375 17.90625 L 11.25 17.90625 C 11.25 18.31925 11.31775 18.6365 11.46875 18.8125 C 11.61975 18.9885 11.83975 19.0625 12.09375 19.0625 C 12.32975 19.0625 12.513 19.00075 12.625 18.84375 C 12.737 18.68575 12.78125 18.48075 12.78125 18.21875 C 12.78125 17.95075 12.738 17.7185 12.625 17.5625 C 12.512 17.4065 12.293 17.24875 12 17.09375 C 11.363 16.84775 10.89675 16.59325 10.59375 16.28125 C 10.29075 15.96925 10.125 15.5175 10.125 14.9375 C 10.125 14.4115 10.28775 13.964 10.59375 13.625 C 10.89975 13.286 11.32075 13.09125 11.84375 13.03125 L 11.84375 12.03125 z"/>
</svg>
