<?xml version="1.0" encoding="utf-8"?>
<!-- Svg Vector Icons : http://www.onlinewebfonts.com/icon -->
<!DOCTYPE svg PUBLIC "-//W3C//DTD SVG 1.1//EN" "http://www.w3.org/Graphics/SVG/1.1/DTD/svg11.dtd">
<svg version="1.1" xmlns="http://www.w3.org/2000/svg" xmlns:xlink="http://www.w3.org/1999/xlink" x="0px" y="0px" viewBox="0 0 1000 1000" enable-background="new 0 0 1000 1000" xml:space="preserve">
<metadata> Svg Vector Icons : http://www.onlinewebfonts.com/icon </metadata>
<g><g transform="translate(0.000000,511.000000) scale(0.100000,-0.100000)"><path d="M7434.1,4870.5l-136.9-139.5l225.7-228.2l228.2-228.2H4751.5H1754.5v-202.8V3869h2997.1h2999.6l-228.2-228.2l-228.2-228.2l147.1-144.5l144.5-147.1l474.2,476.7l476.7,474.2L8068,4540.9c-258.6,258.6-474.2,469.1-481.8,469.1S7510.2,4946.6,7434.1,4870.5z"/><path d="M4678,3047.5c-568-109-1090.3-385.4-1503.6-801.2c-438.6-438.7-725.2-999-811.4-1592.3c-45.6-299.2-20.3-877.3,45.6-1125.8c284-1057.4,1034.5-1810.4,2104.5-2104.5c167.4-48.2,263.7-55.8,689.7-55.8c542.6,0,669.4,22.8,1080.1,187.6c704.9,281.4,1300.8,877.3,1584.7,1584.7c162.3,408.2,185.1,535,185.1,1077.6c0,426-7.6,522.3-55.8,689.7c-294.2,1070-1044.7,1818-2104.5,2104.5C5641.5,3080.4,4956.9,3098.2,4678,3047.5z M5697.3,2636.7c568-109,1115.6-456.4,1488.4-948.3C7715.6,991.1,7819.6-5.4,7449.4-811.7c-441.2-950.8-1452.9-1534-2482.3-1427.6c-618.7,63.4-1138.5,322-1572.1,783.5c-1130.9,1196.8-760.7,3169.5,730.2,3892.1C4627.3,2679.8,5126.8,2743.2,5697.3,2636.7z"/><path d="M5076.1,2233.5c0-71-12.7-119.2-30.4-124.2c-420.9-121.7-636.4-380.3-692.2-839.3c-20.3-177.5,27.9-476.7,104-649.1c81.1-182.6,284-380.4,479.2-469.1l139.5-63.4v-497c0-382.9-7.6-491.9-30.4-484.3c-60.8,20.3-195.2,225.6-240.9,365.1l-43.1,142l-167.4-17.8c-91.3-10.1-200.3-25.4-243.4-33l-78.6-17.8l35.5-177.5c86.2-433.6,296.7-702.4,636.4-811.4l131.9-43.1v-215.5v-213l134.4,7.6l131.9,7.6l7.6,218l7.6,218.1l106.5,30.4c159.7,48.2,360.1,190.2,451.3,322c243.4,355,284,890,96.4,1272.9C5923,344.5,5742.9,496.7,5497,598.1l-142,55.8v456.4c0,491.9,7.6,517.2,121.7,347.4c33-48.2,65.9-116.6,73.5-157.2c7.6-38,22.8-73.5,33-81.1c10.2-5.1,114.1,5.1,230.7,25.4c116.7,20.3,215.5,38,220.6,38c20.3,0-2.5,139.5-45.6,263.7c-93.8,276.4-278.9,464-519.8,527.4l-114.1,30.4v121.7v121.7h-139.5h-139.5V2233.5z M5076.1,1181.3c0-223.1-10.1-405.7-22.8-405.7c-48.2,0-202.8,205.4-220.6,289.1c-27.9,162.3,10.1,314.4,109,423.4c48.2,53.3,98.9,98.9,111.6,98.9C5065.9,1587,5076.1,1404.4,5076.1,1181.3z M5550.2-142.3c167.3-180,136.9-573-55.8-725.2C5357.5-974,5355-966.4,5355-466.8V-7.9l71-38C5464-66.2,5519.8-109.3,5550.2-142.3z"/><path d="M1931.9-3370.1l-469.1-469.1l476.7-474.2l474.2-476.7l144.5,147.1l147.1,144.5l-228.2,228.2L2248.9-4042h2999.6h2997.1v202.8v202.9H5248.5H2248.9l228.2,228.2l225.7,228.2l-136.9,139.5c-76.1,76.1-144.5,139.4-152.1,139.4S2190.6-3111.4,1931.9-3370.1z"/></g></g>
</svg>